<mxfile host="1c4bb5bb-f00d-4825-a5d6-56c367772edb" modified="2020-09-18T21:38:03.358Z" agent="5.0 (Macintosh; Intel Mac OS X 10_15_6) AppleWebKit/537.36 (KHTML, like Gecko) Code/1.49.1 Chrome/83.0.4103.122 Electron/9.2.1 Safari/537.36" etag="Vij0q0eKMM8Q18tzNQ3E" version="13.6.5">
    <diagram id="96hycL_GWhtiIul5awRO" name="Page-1">
        <mxGraphModel dx="1065" dy="634" grid="1" gridSize="10" guides="1" tooltips="1" connect="1" arrows="1" fold="1" page="1" pageScale="1" pageWidth="850" pageHeight="1100" math="0" shadow="0">
            <root>
                <mxCell id="0"/>
                <mxCell id="1" parent="0"/>
                <mxCell id="WXK30ijuMRv5vOyHzHpF-16" value="" style="edgeStyle=entityRelationEdgeStyle;fontSize=12;html=1;endArrow=ERmany;startArrow=ERmany;" parent="1" source="t_dHW_sSGlmTIzvKpBf2-3" target="t_dHW_sSGlmTIzvKpBf2-58" edge="1">
                    <mxGeometry width="100" height="100" relative="1" as="geometry">
                        <mxPoint x="370" y="360" as="sourcePoint"/>
                        <mxPoint x="470" y="260" as="targetPoint"/>
                    </mxGeometry>
                </mxCell>
                <mxCell id="WXK30ijuMRv5vOyHzHpF-17" value="" style="edgeStyle=entityRelationEdgeStyle;fontSize=12;html=1;endArrow=ERmany;exitX=1.009;exitY=0.253;exitDx=0;exitDy=0;exitPerimeter=0;" parent="1" source="WXK30ijuMRv5vOyHzHpF-13" target="t_dHW_sSGlmTIzvKpBf2-3" edge="1">
                    <mxGeometry width="100" height="100" relative="1" as="geometry">
                        <mxPoint x="200" y="380" as="sourcePoint"/>
                        <mxPoint x="790" y="100" as="targetPoint"/>
                    </mxGeometry>
                </mxCell>
                <mxCell id="WXK30ijuMRv5vOyHzHpF-18" value="" style="edgeStyle=entityRelationEdgeStyle;fontSize=12;html=1;endArrow=ERoneToMany;exitX=1;exitY=0.5;exitDx=0;exitDy=0;entryX=-0.007;entryY=0.04;entryDx=0;entryDy=0;entryPerimeter=0;" parent="1" source="WXK30ijuMRv5vOyHzHpF-10" target="t_dHW_sSGlmTIzvKpBf2-57" edge="1">
                    <mxGeometry width="100" height="100" relative="1" as="geometry">
                        <mxPoint x="270" y="210" as="sourcePoint"/>
                        <mxPoint x="370" y="110" as="targetPoint"/>
                    </mxGeometry>
                </mxCell>
                <mxCell id="t_dHW_sSGlmTIzvKpBf2-1" value="Dev Comp." style="swimlane;fontStyle=0;childLayout=stackLayout;horizontal=1;startSize=26;horizontalStack=0;resizeParent=1;resizeParentMax=0;resizeLast=0;collapsible=1;marginBottom=0;align=center;fontSize=14;fillColor=#f8cecc;strokeColor=#b85450;" parent="1" vertex="1">
                    <mxGeometry x="320" y="320" width="160" height="176" as="geometry"/>
                </mxCell>
                <mxCell id="t_dHW_sSGlmTIzvKpBf2-2" value="Name: String" style="text;strokeColor=none;fillColor=none;spacingLeft=4;spacingRight=4;overflow=hidden;rotatable=0;points=[[0,0.5],[1,0.5]];portConstraint=eastwest;fontSize=12;" parent="t_dHW_sSGlmTIzvKpBf2-1" vertex="1">
                    <mxGeometry y="26" width="160" height="30" as="geometry"/>
                </mxCell>
                <mxCell id="t_dHW_sSGlmTIzvKpBf2-3" value="Games: [ ref Games ]" style="text;strokeColor=none;fillColor=none;spacingLeft=4;spacingRight=4;overflow=hidden;rotatable=0;points=[[0,0.5],[1,0.5]];portConstraint=eastwest;fontSize=12;" parent="t_dHW_sSGlmTIzvKpBf2-1" vertex="1">
                    <mxGeometry y="56" width="160" height="30" as="geometry"/>
                </mxCell>
                <mxCell id="WXK30ijuMRv5vOyHzHpF-4" value="Description: String" style="text;strokeColor=none;fillColor=none;spacingLeft=4;spacingRight=4;overflow=hidden;rotatable=0;points=[[0,0.5],[1,0.5]];portConstraint=eastwest;fontSize=12;" parent="t_dHW_sSGlmTIzvKpBf2-1" vertex="1">
                    <mxGeometry y="86" width="160" height="30" as="geometry"/>
                </mxCell>
                <mxCell id="WXK30ijuMRv5vOyHzHpF-5" value="Icon: String" style="text;strokeColor=none;fillColor=none;spacingLeft=4;spacingRight=4;overflow=hidden;rotatable=0;points=[[0,0.5],[1,0.5]];portConstraint=eastwest;fontSize=12;" parent="t_dHW_sSGlmTIzvKpBf2-1" vertex="1">
                    <mxGeometry y="116" width="160" height="30" as="geometry"/>
                </mxCell>
                <mxCell id="WXK30ijuMRv5vOyHzHpF-6" value="Link: String" style="text;strokeColor=none;fillColor=none;spacingLeft=4;spacingRight=4;overflow=hidden;rotatable=0;points=[[0,0.5],[1,0.5]];portConstraint=eastwest;fontSize=12;" parent="t_dHW_sSGlmTIzvKpBf2-1" vertex="1">
                    <mxGeometry y="146" width="160" height="30" as="geometry"/>
                </mxCell>
                <mxCell id="t_dHW_sSGlmTIzvKpBf2-57" value="Game" style="swimlane;fontStyle=0;childLayout=stackLayout;horizontal=1;startSize=26;horizontalStack=0;resizeParent=1;resizeParentMax=0;resizeLast=0;collapsible=1;marginBottom=0;align=center;fontSize=14;fillColor=#e1d5e7;strokeColor=#9673a6;" parent="1" vertex="1">
                    <mxGeometry x="540" y="186" width="240" height="290" as="geometry"/>
                </mxCell>
                <mxCell id="t_dHW_sSGlmTIzvKpBf2-58" value="Title: String Required" style="text;strokeColor=none;fillColor=none;spacingLeft=4;spacingRight=4;overflow=hidden;rotatable=0;points=[[0,0.5],[1,0.5]];portConstraint=eastwest;fontSize=12;" parent="t_dHW_sSGlmTIzvKpBf2-57" vertex="1">
                    <mxGeometry y="26" width="240" height="30" as="geometry"/>
                </mxCell>
                <mxCell id="t_dHW_sSGlmTIzvKpBf2-59" value="Release Date: String Required" style="text;strokeColor=none;fillColor=none;spacingLeft=4;spacingRight=4;overflow=hidden;rotatable=0;points=[[0,0.5],[1,0.5]];portConstraint=eastwest;fontSize=12;" parent="t_dHW_sSGlmTIzvKpBf2-57" vertex="1">
                    <mxGeometry y="56" width="240" height="30" as="geometry"/>
                </mxCell>
                <mxCell id="t_dHW_sSGlmTIzvKpBf2-60" value="Rating: Number Required" style="text;strokeColor=none;fillColor=none;spacingLeft=4;spacingRight=4;overflow=hidden;rotatable=0;points=[[0,0.5],[1,0.5]];portConstraint=eastwest;fontSize=12;" parent="t_dHW_sSGlmTIzvKpBf2-57" vertex="1">
                    <mxGeometry y="86" width="240" height="34" as="geometry"/>
                </mxCell>
                <mxCell id="WXK30ijuMRv5vOyHzHpF-3" value="Description: Sring Required&#10;" style="text;strokeColor=none;fillColor=none;spacingLeft=4;spacingRight=4;overflow=hidden;rotatable=0;points=[[0,0.5],[1,0.5]];portConstraint=eastwest;fontSize=12;" parent="t_dHW_sSGlmTIzvKpBf2-57" vertex="1">
                    <mxGeometry y="120" width="240" height="34" as="geometry"/>
                </mxCell>
                <mxCell id="WXK30ijuMRv5vOyHzHpF-7" value="Icon: String (Game Picture)Required&#10;" style="text;strokeColor=none;fillColor=none;spacingLeft=4;spacingRight=4;overflow=hidden;rotatable=0;points=[[0,0.5],[1,0.5]];portConstraint=eastwest;fontSize=12;" parent="t_dHW_sSGlmTIzvKpBf2-57" vertex="1">
                    <mxGeometry y="154" width="240" height="34" as="geometry"/>
                </mxCell>
                <mxCell id="WXK30ijuMRv5vOyHzHpF-19" value="Genre: String" style="text;strokeColor=none;fillColor=none;spacingLeft=4;spacingRight=4;overflow=hidden;rotatable=0;points=[[0,0.5],[1,0.5]];portConstraint=eastwest;fontSize=12;" parent="t_dHW_sSGlmTIzvKpBf2-57" vertex="1">
                    <mxGeometry y="188" width="240" height="34" as="geometry"/>
                </mxCell>
                <mxCell id="WXK30ijuMRv5vOyHzHpF-22" value="Link: String" style="text;strokeColor=none;fillColor=none;spacingLeft=4;spacingRight=4;overflow=hidden;rotatable=0;points=[[0,0.5],[1,0.5]];portConstraint=eastwest;fontSize=12;" parent="t_dHW_sSGlmTIzvKpBf2-57" vertex="1">
                    <mxGeometry y="222" width="240" height="34" as="geometry"/>
                </mxCell>
                <mxCell id="2" value="Dev: String" style="text;strokeColor=none;fillColor=none;spacingLeft=4;spacingRight=4;overflow=hidden;rotatable=0;points=[[0,0.5],[1,0.5]];portConstraint=eastwest;fontSize=12;" vertex="1" parent="t_dHW_sSGlmTIzvKpBf2-57">
                    <mxGeometry y="256" width="240" height="34" as="geometry"/>
                </mxCell>
                <mxCell id="WXK30ijuMRv5vOyHzHpF-8" value="User" style="swimlane;fontStyle=0;childLayout=stackLayout;horizontal=1;startSize=26;horizontalStack=0;resizeParent=1;resizeParentMax=0;resizeLast=0;collapsible=1;marginBottom=0;align=center;fontSize=14;fillColor=#fff2cc;strokeColor=#d6b656;" parent="1" vertex="1">
                    <mxGeometry x="60" y="204" width="160" height="176" as="geometry"/>
                </mxCell>
                <mxCell id="WXK30ijuMRv5vOyHzHpF-20" value="Username: String" style="text;strokeColor=none;fillColor=none;spacingLeft=4;spacingRight=4;overflow=hidden;rotatable=0;points=[[0,0.5],[1,0.5]];portConstraint=eastwest;fontSize=12;" parent="WXK30ijuMRv5vOyHzHpF-8" vertex="1">
                    <mxGeometry y="26" width="160" height="30" as="geometry"/>
                </mxCell>
                <mxCell id="WXK30ijuMRv5vOyHzHpF-9" value="Password: String" style="text;strokeColor=none;fillColor=none;spacingLeft=4;spacingRight=4;overflow=hidden;rotatable=0;points=[[0,0.5],[1,0.5]];portConstraint=eastwest;fontSize=12;" parent="WXK30ijuMRv5vOyHzHpF-8" vertex="1">
                    <mxGeometry y="56" width="160" height="30" as="geometry"/>
                </mxCell>
                <mxCell id="WXK30ijuMRv5vOyHzHpF-21" value="Email: String" style="text;strokeColor=none;fillColor=none;spacingLeft=4;spacingRight=4;overflow=hidden;rotatable=0;points=[[0,0.5],[1,0.5]];portConstraint=eastwest;fontSize=12;" parent="WXK30ijuMRv5vOyHzHpF-8" vertex="1">
                    <mxGeometry y="86" width="160" height="30" as="geometry"/>
                </mxCell>
                <mxCell id="WXK30ijuMRv5vOyHzHpF-10" value="Favs Games: [ ref Games ]" style="text;strokeColor=none;fillColor=none;spacingLeft=4;spacingRight=4;overflow=hidden;rotatable=0;points=[[0,0.5],[1,0.5]];portConstraint=eastwest;fontSize=12;" parent="WXK30ijuMRv5vOyHzHpF-8" vertex="1">
                    <mxGeometry y="116" width="160" height="30" as="geometry"/>
                </mxCell>
                <mxCell id="WXK30ijuMRv5vOyHzHpF-13" value="Favs Devs: [ ref Devs ]" style="text;strokeColor=none;fillColor=none;spacingLeft=4;spacingRight=4;overflow=hidden;rotatable=0;points=[[0,0.5],[1,0.5]];portConstraint=eastwest;fontSize=12;" parent="WXK30ijuMRv5vOyHzHpF-8" vertex="1">
                    <mxGeometry y="146" width="160" height="30" as="geometry"/>
                </mxCell>
                <mxCell id="WXK30ijuMRv5vOyHzHpF-32" value="" style="edgeStyle=entityRelationEdgeStyle;fontSize=12;html=1;endArrow=ERmany;startArrow=ERmany;" parent="1" source="t_dHW_sSGlmTIzvKpBf2-57" target="WXK30ijuMRv5vOyHzHpF-23" edge="1">
                    <mxGeometry width="100" height="100" relative="1" as="geometry">
                        <mxPoint x="440" y="640" as="sourcePoint"/>
                        <mxPoint x="550" y="540" as="targetPoint"/>
                    </mxGeometry>
                </mxCell>
                <mxCell id="WXK30ijuMRv5vOyHzHpF-34" value="" style="edgeStyle=entityRelationEdgeStyle;fontSize=12;html=1;endArrow=ERoneToMany;" parent="1" source="WXK30ijuMRv5vOyHzHpF-8" target="WXK30ijuMRv5vOyHzHpF-23" edge="1">
                    <mxGeometry width="100" height="100" relative="1" as="geometry">
                        <mxPoint x="330" y="530" as="sourcePoint"/>
                        <mxPoint x="430" y="430" as="targetPoint"/>
                    </mxGeometry>
                </mxCell>
                <mxCell id="WXK30ijuMRv5vOyHzHpF-23" value="Console(stretch)" style="swimlane;fontStyle=0;childLayout=stackLayout;horizontal=1;startSize=26;horizontalStack=0;resizeParent=1;resizeParentMax=0;resizeLast=0;collapsible=1;marginBottom=0;align=center;fontSize=14;fillColor=#bac8d3;strokeColor=#23445d;" parent="1" vertex="1">
                    <mxGeometry x="260" y="550" width="240" height="222" as="geometry"/>
                </mxCell>
                <mxCell id="WXK30ijuMRv5vOyHzHpF-24" value="Name: String" style="text;strokeColor=none;fillColor=none;spacingLeft=4;spacingRight=4;overflow=hidden;rotatable=0;points=[[0,0.5],[1,0.5]];portConstraint=eastwest;fontSize=12;" parent="WXK30ijuMRv5vOyHzHpF-23" vertex="1">
                    <mxGeometry y="26" width="240" height="30" as="geometry"/>
                </mxCell>
                <mxCell id="WXK30ijuMRv5vOyHzHpF-25" value="Release Date: String Required" style="text;strokeColor=none;fillColor=none;spacingLeft=4;spacingRight=4;overflow=hidden;rotatable=0;points=[[0,0.5],[1,0.5]];portConstraint=eastwest;fontSize=12;" parent="WXK30ijuMRv5vOyHzHpF-23" vertex="1">
                    <mxGeometry y="56" width="240" height="30" as="geometry"/>
                </mxCell>
                <mxCell id="WXK30ijuMRv5vOyHzHpF-27" value="Description: Sring Required&#10;" style="text;strokeColor=none;fillColor=none;spacingLeft=4;spacingRight=4;overflow=hidden;rotatable=0;points=[[0,0.5],[1,0.5]];portConstraint=eastwest;fontSize=12;" parent="WXK30ijuMRv5vOyHzHpF-23" vertex="1">
                    <mxGeometry y="86" width="240" height="34" as="geometry"/>
                </mxCell>
                <mxCell id="WXK30ijuMRv5vOyHzHpF-28" value="Icon: String (Game Picture)Required&#10;" style="text;strokeColor=none;fillColor=none;spacingLeft=4;spacingRight=4;overflow=hidden;rotatable=0;points=[[0,0.5],[1,0.5]];portConstraint=eastwest;fontSize=12;" parent="WXK30ijuMRv5vOyHzHpF-23" vertex="1">
                    <mxGeometry y="120" width="240" height="34" as="geometry"/>
                </mxCell>
                <mxCell id="WXK30ijuMRv5vOyHzHpF-29" value="Genre: String" style="text;strokeColor=none;fillColor=none;spacingLeft=4;spacingRight=4;overflow=hidden;rotatable=0;points=[[0,0.5],[1,0.5]];portConstraint=eastwest;fontSize=12;" parent="WXK30ijuMRv5vOyHzHpF-23" vertex="1">
                    <mxGeometry y="154" width="240" height="34" as="geometry"/>
                </mxCell>
                <mxCell id="WXK30ijuMRv5vOyHzHpF-30" value="Link: String" style="text;strokeColor=none;fillColor=none;spacingLeft=4;spacingRight=4;overflow=hidden;rotatable=0;points=[[0,0.5],[1,0.5]];portConstraint=eastwest;fontSize=12;" parent="WXK30ijuMRv5vOyHzHpF-23" vertex="1">
                    <mxGeometry y="188" width="240" height="34" as="geometry"/>
                </mxCell>
                <mxCell id="4" value="" style="line;strokeWidth=2;html=1;" vertex="1" parent="1">
                    <mxGeometry x="480" y="450" width="60" height="10" as="geometry"/>
                </mxCell>
            </root>
        </mxGraphModel>
    </diagram>
</mxfile>